<svg width="24" height="24" viewBox="0 0 24 24" fill="none" xmlns="http://www.w3.org/2000/svg">
<g clip-path="url(#clip0_802_14)">
<path fill-rule="evenodd" clip-rule="evenodd" d="M4.348 21.241L8.533 13.992L14.203 23.798C13.489 23.931 12.753 24 12 24C9.093 24 6.425 22.964 4.348 21.241ZM23.318 15.994C22.136 19.339 19.512 22.006 16.194 23.246L12.007 15.994H23.318ZM8.532 9.994L2.876 19.791C1.083 17.694 0 14.972 0 12C0 11.316 0.057 10.646 0.167 9.994H8.532ZM21.115 4.199C22.913 6.297 24 9.023 24 12C24 12.679 23.943 13.345 23.835 13.994H15.462L21.115 4.199ZM9.81 0.2C10.52 0.069 11.252 0 12 0C14.903 0 17.566 1.033 19.642 2.751L15.462 9.991L9.81 0.2ZM12 7.994H0.686C1.872 4.65 4.498 1.986 7.818 0.75L12 7.994Z" fill="#E6E6E6"/>
</g>
<defs>
<clipPath id="clip0_802_14">
<rect width="24" height="24" fill="white"/>
</clipPath>
</defs>
</svg>
