<svg width="24" height="24" viewBox="0 0 24 24" fill="none" xmlns="http://www.w3.org/2000/svg">
<path fill-rule="evenodd" clip-rule="evenodd" d="M12 1C5.662 1 0 5.226 0 11.007C0 13.057 0.739 15.07 2.047 16.632L0.054 23L7 20C8.705 20.439 10.334 20.641 11.864 20.641C19.038 20.641 24 16.202 24 11.007C24 5.195 18.299 1 12 1ZM12 2C18.065 2 23 6.041 23 11.007C23 15.929 18.213 19.641 11.864 19.641C9.983 19.641 8.463 19.342 6.918 18.946L1.66 21.217L3.165 16.409C1.857 14.845 1 13.281 1 11.007C1 6.041 5.935 2 12 2Z" fill="#E6E6E6"/>
</svg>
