<svg width="24" height="24" viewBox="0 0 24 24" fill="none" xmlns="http://www.w3.org/2000/svg">
<path d="M12 1C5.662 1 0 5.226 0 11.007C0 13.057 0.739 15.07 2.047 16.632C2.102 18.462 1.024 21.088 0.054 23C2.656 22.53 6.355 21.492 8.032 20.464C17.268 22.711 24 17.059 24 11.007C24 5.195 18.299 1 12 1ZM7.296 13.474C6.88 13.804 6.3 13.969 5.556 13.969C4.919 13.969 4.355 13.846 3.866 13.602L4.14 12.519C4.634 12.768 5.133 12.894 5.641 12.894C5.934 12.894 6.162 12.838 6.327 12.727C6.642 12.513 6.661 12.081 6.35 11.835C6.201 11.718 5.946 11.599 5.581 11.478C4.484 11.112 3.936 10.541 3.936 9.762C3.936 9.259 4.138 8.845 4.54 8.519C4.944 8.194 5.483 8.031 6.154 8.031C6.74 8.031 7.25 8.13 7.689 8.329L7.39 9.378C6.989 9.191 6.57 9.098 6.136 9.098C5.869 9.098 5.66 9.15 5.509 9.251C5.21 9.455 5.216 9.821 5.474 10.038C5.6 10.145 5.902 10.284 6.384 10.454C6.916 10.642 7.304 10.874 7.551 11.152C7.797 11.429 7.92 11.773 7.92 12.186C7.92 12.714 7.712 13.144 7.296 13.474ZM13.934 13.875C13.843 11.594 13.798 10.046 13.798 9.233H13.772C13.634 9.844 13.167 11.361 12.373 13.78H11.342C10.866 12.111 10.164 9.233 10.164 9.233H10.146L9.942 13.875H8.713L9.079 8.125H10.871L11.885 12.092L13.113 8.125H14.924L15.233 13.875H13.934ZM19.499 13.498C19.08 13.832 18.488 14 17.739 14C17.133 14 16.56 13.893 16.012 13.619L16.302 12.472C16.782 12.718 17.275 12.862 17.824 12.862C18.11 12.862 18.334 12.808 18.491 12.7C18.793 12.496 18.804 12.09 18.513 11.859C18.368 11.745 18.113 11.628 17.756 11.506C16.649 11.139 16.086 10.552 16.086 9.761C16.086 9.251 16.294 8.823 16.704 8.494C17.111 8.166 17.66 8 18.335 8C18.922 8 19.444 8.101 19.885 8.3L19.908 8.312L19.592 9.423C19.188 9.233 18.782 9.128 18.318 9.128C18.06 9.128 17.855 9.178 17.709 9.276C17.428 9.468 17.434 9.809 17.677 10.014C17.8 10.117 18.102 10.256 18.576 10.424C19.112 10.612 19.508 10.85 19.757 11.13C20.007 11.413 20.135 11.766 20.135 12.185C20.134 12.722 19.92 13.164 19.499 13.498Z" fill="black"/>
</svg>
