<svg width="24" height="22" viewBox="0 0 24 22" fill="none" xmlns="http://www.w3.org/2000/svg">
<path fill-rule="evenodd" clip-rule="evenodd" d="M12 0C5.662 0 0 4.226 0 10.007C0 12.057 0.739 14.07 2.047 15.632L0.054 22L7 19C8.705 19.439 10.334 19.641 11.864 19.641C19.038 19.641 24 15.202 24 10.007C24 4.195 18.299 0 12 0ZM12 1C18.065 1 23 5.041 23 10.007C23 14.929 18.213 18.641 11.864 18.641C9.983 18.641 8.463 18.342 6.918 17.946L1.66 20.217L3.165 15.409C1.857 13.845 1 12.281 1 10.007C1 5.041 5.935 1 12 1Z" fill="#424242"/>
</svg>
