<svg width="24" height="24" viewBox="0 0 24 24" fill="none" xmlns="http://www.w3.org/2000/svg">
<g clip-path="url(#clip0_801_8)">
<path d="M0 7.244C3.071 4.004 7.314 2 12 2C16.687 2 20.929 4.004 24 7.244L21.961 9.394C19.412 6.706 15.89 5.042 12 5.042C8.11 5.042 4.588 6.706 2.039 9.394L0 7.244ZM5.72 13.278C7.327 11.582 9.547 10.534 12 10.534C14.453 10.534 16.673 11.582 18.28 13.278L20.373 11.07C18.23 8.809 15.27 7.411 12 7.411C8.73 7.411 5.77 8.809 3.627 11.07L5.72 13.278ZM9.378 17.137C10.049 16.429 10.976 15.992 12 15.992C13.023 15.992 13.951 16.429 14.622 17.137L16.679 14.967C15.482 13.704 13.828 12.923 12.001 12.923C10.174 12.923 8.52 13.705 7.323 14.967L9.378 17.137ZM12 18.154C10.938 18.154 10.077 19.015 10.077 20.077C10.077 21.139 10.938 22 12 22C13.062 22 13.923 21.139 13.923 20.077C13.923 19.015 13.062 18.154 12 18.154Z" fill="black"/>
</g>
<defs>
<clipPath id="clip0_801_8">
<rect width="24" height="24" fill="white"/>
</clipPath>
</defs>
</svg>
